# xmcd
#
# Track frame offsets: 
#        150
#        16003
#        31133
#        56968
#        77328
#        91075
#        104735
#        121213
#        137563
#        155050
#        177900
#        195473
#
# Disc length: 2765 seconds
#
# Revision: 0
# Processed by: cddbd v1.5.1PL2 Copyright (c) Steve Scherf et al.
# Submitted via: ExactAudioCopy v0.95b3
#
DISCID=900acb0c
DTITLE=Musisz to miec - Obstawa Prezydenta
DYEAR=1900
DGENRE=Blues
TTITLE0=Tak musisz to miec
TTITLE1=Cygaro z bolca
TTITLE2=Troche o sobie i nadzieji
TTITLE3=Taka zimna
TTITLE4=Super Zocha
TTITLE5=Motorowe zycie
TTITLE6=Pelny luz
TTITLE7=Ty i ja nasza potega
TTITLE8=Hazard boogie
TTITLE9=Kazdy chlopak kazda kobieta
TTITLE10=Balladka o zwyklej P.
TTITLE11=Blues dla Gutka i Lysego
EXTD=
EXTT0=
EXTT1=
EXTT2=
EXTT3=
EXTT4=
EXTT5=
EXTT6=
EXTT7=
EXTT8=
EXTT9=
EXTT10=
EXTT11=
PLAYORDER=
